<svg id="Layer_1" data-name="Layer 1" xmlns="http://www.w3.org/2000/svg" viewBox="0 0 611 194"><defs><style>.cls-1{fill:#000f9e;}.cls-2{fill:#fff;}.cls-3{fill:#f5333f;}</style></defs><rect class="cls-1" x="5.04" y="7.21" width="600.92" height="179.57" rx="89.79"/><path class="cls-2" d="M221.8,37.46h47.7V142.61H242.05V60H221.8Z"/><path class="cls-2" d="M370.44,120.56v22.05h-80.1l-.15-18.15,38.25-39.3a54.33,54.33,0,0,0,7.35-9.3q2.85-4.65,2.85-8a7.8,7.8,0,0,0-3.15-6.68q-3.15-2.32-8.85-2.32a34.19,34.19,0,0,0-14,3.52,61.57,61.57,0,0,0-14.93,9.83L287.19,52q21.75-15.75,43.65-15.75a48.8,48.8,0,0,1,18.83,3.45,30.42,30.42,0,0,1,13.05,9.75,23.36,23.36,0,0,1,4.72,14.4q0,8.1-5.32,16.72A104.11,104.11,0,0,1,347,99l-21.45,21.6Z"/><path class="cls-2" d="M453.17,90q7.72,7.57,7.72,19.43a31.22,31.22,0,0,1-5.25,17.85,34.58,34.58,0,0,1-14.85,12.15q-9.6,4.35-22.5,4.35a75,75,0,0,1-22.72-3.53,60.87,60.87,0,0,1-18.83-9.37l10.2-19.35A48.78,48.78,0,0,0,401,120a42,42,0,0,0,15,2.85q8.7,0,13.35-3.38a11.22,11.22,0,0,0,4.65-9.67q0-6.3-4.65-9.6t-13.5-3.3h-17.7v-15l24.3-23.4h-40.2v-21h73.5v15.9L427.14,79.61l5.55,1Q445.44,82.46,453.17,90Z"/><circle class="cls-3" cx="98.69" cy="97" r="76.34"/><path class="cls-2" d="M131.81,59.64c-3.64-2.9-21-9.36-49.35,18.33-29.9,29.16-23.5,48-20.13,51.22l19.51-19.5c-2.73-2.73-.31-6.24,5.18-13a98.34,98.34,0,0,1,14-14c3.86-3.12,7.92-5.88,10.77-3Z"/><path class="cls-2" d="M69.32,136.24a3.06,3.06,0,0,0,4.34,0h0L88.88,121a3.05,3.05,0,0,0,0-4.32l-5.53-5.53L63.79,130.72l5.51,5.52Z"/><path class="cls-2" d="M118.87,86.68a3.06,3.06,0,0,0,4.34,0h0L138.87,71a3.06,3.06,0,0,0,0-4.33l-5.53-5.52-20,20,5.51,5.52Z"/></svg>