<svg xmlns="http://www.w3.org/2000/svg" viewBox="0 0 611 573"><defs><style>.cls-1,.cls-8{fill:#00bc70;}.cls-1,.cls-2{stroke:#fff;stroke-width:1.75px;}.cls-1,.cls-2,.cls-3{stroke-miterlimit:10;}.cls-2{fill:#92d500;}.cls-3{fill:none;stroke:#000f9e;stroke-width:1.19px;}.cls-4{fill:#fff;}.cls-12,.cls-14,.cls-5{font-size:9.55px;font-family:Montserrat-Bold, Montserrat;font-weight:700;}.cls-12,.cls-14,.cls-5,.cls-9{fill:#000f9e;}.cls-15,.cls-5{letter-spacing:0em;}.cls-6{letter-spacing:0em;}.cls-7{fill:#3627a9;}.cls-10{fill:#6951bc;}.cls-11{fill:#f5333f;}.cls-12{letter-spacing:0em;}.cls-13{letter-spacing:0em;}</style></defs><g id="elementos"><path class="cls-1" d="M309.34,398.23c-.33-.21-.72-.06-1.06-.15s.14-.66-.1-.93-.37,0-.53-.14-.1-.38-.08-.56c.19-.49-.27-.56-.6-.68s-.16-.44-.28-.65-.47-.32-.74-.35-.63.11-.65-.2.11-.59-.1-.79c-.34-.4-1-.06-1.36-.43a4.46,4.46,0,0,0-1-1.4,4.29,4.29,0,0,1-.3-.85c-.05-.13-.2-.26-.11-.4,1-.7-.27-1.27-.27-2.13-.08-.42.37-1.21-.34-1.22a5.89,5.89,0,0,0-.07-1.18c-.26-.34-.76-.23-1.14-.3s-.16-.7-.24-1c0-.42-.41-.72-.69-1a3.1,3.1,0,0,1-.91-.93c-.08-.3,0-.63,0-.93a5.37,5.37,0,0,0-1-1.5c-.14-.15-.37,0-.54,0-.43-.25-.26-1.45-1.13-.78-.21.17-.55.34-.76.12s-.23-.47-.4-.66c1.33.11-.2-2.75-.16-3.44,8-1.37,5.09-3,3.88-9.22,2.47-.48,3.89-.12,2.19-3.25-1.77-2.25-1.47-6.12-4.39-7.9-3.67-2.22,2.39-4.35,2.11-7.14-.53-6.41-8.43-5.26-13.16-7.29-5.14-2.45-12-1.5-12.09,5.4-1.47-.22-.86-3.78-.77-5.32.2-1.8,1.19-3.9-.56-5,.6-.18.36-.83.77-1.23.35-1.41-1.9.39.74-2.55a3.25,3.25,0,0,1-1.35-1.44c.21-.64.8-.83,1.16-1.39.13-.32-.15-.56-.34-.75a2.67,2.67,0,0,0,.43-1.42c0-.64,0-1.08.59-1.48.16-.45,0-.76.64-1,.36-.41-.54-.26-.54-.77-.19-.22-.4-1,0-.94.13.14.33.2.43,0,0-1.07,2-.71,1.45-1.69.44-.43.51.37.94.32a18.8,18.8,0,0,1,1.87-2.34c.18-.26-.25-.53.08-.71a8.07,8.07,0,0,0,.87-1.39c.55-.65.67-.6.64-1.5-.18-.48.41-.58.75-.7,0-.12-.19-.19-.1-.33a8.91,8.91,0,0,1,1.51-1.62c0-.26-.39-.35-.36-.63.12-.47.56-.21.38-.94a2.09,2.09,0,0,0-.06-.71c-.18-.24-.44-.53-.15-.8.62-.64-.8-1.11-.68-1.76,0-.25.39-.39.23-.6-.47-1.17-.79-1.58.16-2.78.69-1.19-1.27-1.11.55-2.54,3-1.15,5.81-2.9,8.82-3.73a9.79,9.79,0,0,1,1.62-5.05c.69-4-1.1-1.4,2-5.87.69-1.86,3.72-3.19,3.2-5.3-.55-1.52-1-3.05-1.47-4.6a16.79,16.79,0,0,1-1-1.76c-.25-.66-.34-1.37-.63-2a15.35,15.35,0,0,1-.79-2c0-.13-.21-.32,0-.35.06-.05.21-.05.19-.17-.34-1,2.12-.12,2.83-2,.1-.28.4-.6.71-.43.68.71,1.29,1.5,2,2.15a8.33,8.33,0,0,0,1.15,1.08c.4.35-.18.53.14.81.71.62.7,1.65,1.63.76.43-.31,1-.16,1.5-.23s.7-.07,1,.25a.77.77,0,0,0,.74.45c.13.06,0,.23,0,.33s.32-.06.43-.1c.62-.18,1-1,1.73-.73a.62.62,0,0,0,.38-.2c.16-.09.36-.08.51-.18s.43-.53.77-.63c.72-.23,1.58.47,2.22-.09.3-.28.29-.74.59-1s1-.07,1.43-.13a2.17,2.17,0,0,1,2.15.61c2.6,1.83,7.14,1.37,7.94,5-.08,4.24,1.18,4.42,3.83,6.8.7,2.29.25,5,2.07,6.89,1.32.67,1.41,1.84,2.45.05,1-1.22,2.75-1.77,4-2.82.81-.48,1.37-1.1,2.27-.4.95-.79,3.43-1.39,4.68-1.69,2-1.85,1.88-2.76,5.08-1.49,2.46.67,3.83-1,3.87-3.26,1.12-.6,1-2,1.16-3.06.62-1.78-1.85-2.53-1.34-4.24,2-1.75,3.34-2.42,1.93-5.33.85-2.19,3.4-3.83,3.37-6.35,1.65-2.27-.52-4.51.4-7,.77-2.05-1.62-3.94-.12-5.92-1.74-4.12,3.18-3.16,5.85-3a25.1,25.1,0,0,1,4.37.53c.87.53,1.95-.69,2.59.37-.35,1.54,1.39,1.21,2.07,2,.67.49.31,1.6,1.11,1.93,1.26.29,1.64,2.15,2.82,2.7,1,1.39,1.54,2.92,3.47,3.25a2.81,2.81,0,0,0,2.93-.43c.49-.1,1.22,0,1.38-.63s1.54-.23,1.75.12c.38.74,1.14,1.33.87,2.27s0,1.64-.19,2.47c-.15.54-.93,1-.17,1.52.58.6.16.75-.48.8-.31.18-.4.59-.54.9-.47.75.46,1.27.11,2s-1.55.63-1.18,1.56c.07.34.29.76.08,1.09s-.85.58-1,1a6.18,6.18,0,0,1-.2,1c-.17.11-.35.2-.41.42s.08.56,0,.84c-.24.45,0,.74.34,1a2.57,2.57,0,0,1,.91,1.24c-.05.32.06.65.43.63s.8-.15,1.09.08a6.38,6.38,0,0,1,.45,3.17c0,.41-.61.52-.5,1s.71,1.05.73,1.69c0,.45-.11.94.31,1.27.46.52,1.24.81,1,1.62.59,1.54-1.31.61-1.47,1.95a1.15,1.15,0,0,0,.31,1.3c-.06.6.24,1.2.07,1.79.75,1.5-1,2-1.26,3.44-.12.31,0,.58.11.87.13.94-1.43,1-1.77,1.71-.3.89-1.17,1.31-1.45,2.2-.15.21-.67.08-.65.41.19.32-.05.6-.3.8-.47.19-.44.77-.58,1.17.32.26,1,.92.48,1.26-.54,0-1.11.27-.93.88.19.45-.06.69-.42.94-1.84,1.57.47.76.06,1.84-.47.24-.94.48-.64,1.08.21.34.76.56.46,1-.36.25-.89.15-1.2.46.13.38.34.82.45,1.23.36.32.11.72,0,1.1.21.6.79,1.71,0,2.05-.69.18.85,1.12.51,2,0,.21-.24.2-.37.3-.22.38.37.71.29,1.1a2.35,2.35,0,0,0-.56,2.67c.57.76-.41.85-.5,1.56-.07,1,.24,1.9.2,2.85a2.76,2.76,0,0,1-.42,1.73,6.8,6.8,0,0,1-.34,1.25,3.84,3.84,0,0,0-.88,3.17c.25.55-.15.9-.31,1.37,0,.45.39.75.59,1.11.26.06.6.14.44.51-.45.63-1.17,1.38-.82,2.2.32.53-.22,1.12,0,1.64.23.26.61.47.69.82a16.29,16.29,0,0,1-.52,2,.93.93,0,0,0-.64,1c0,.27-.33.47-.21.74,0,.42.33.71.38,1.09s.42.88.46,1.39a7.07,7.07,0,0,0,.19,1,6.83,6.83,0,0,1,1.09.69c.44,2.32.71,1.07,2.45,1.85.89-.06,1.43.85,2.39.79,1.14.25,1.69,1.54,2.82,1.81,1.81-1.36.67.26,2.37-.1,1.24-.72,2.18-2.29,3.87-1.65.05-.6.67-.67.49-1.33,0-.29.88-.69,1.32-.9,1.15.9.47-.21,1.15-.52,1.33-1.49,2.71.31,3,1.55a1.66,1.66,0,0,1,1.24.3c-.1.39,0,.74.46.8.93.4,3-.93,3.15.37-.09.93.85,1.24,1.62,1.21.37.15.76.68,1.15.25,1.07.18,1.46,2.15,1.37,2.93,3.11,3.08.95,1.48,1.31,4.6-.31.7-.84,1.2-.58,2.07-.18.53-1.17,1.22-.21,1.6a2.38,2.38,0,0,1-.63,3.21c-.59,1-2.32,1-2.54,2.31a6,6,0,0,1-1.85,4.18c-.1.77.47,1.6,0,2.37.4,3.15-.85,6.25-2.12,9.06.54,3.51-1,7.32-.38,10.88-3.33,5-6.07,16.89-14,12.65-3-1-6.48-1.32-8.75-3.82-.75-2.12-2.82-2.07-4-3.4-2.81-.06-1.94-2.51-3.15-4.11a27.49,27.49,0,0,0-11.52,3.08c-7.46,3.89-13.18,10.39-18.84,16.34-.13.14-.73.51-.78.57a2.23,2.23,0,0,0,.1.93c.24.41,0,.86-.17,1.23s.44.4.56.62c.11.39-.09.82.13,1.19-4.42-3.31-11.44-9.79-16-13a2.41,2.41,0,0,0-.76-.1c-.33-.05-.64-.17-1-.23s-.54-.25-.84-.3a2.43,2.43,0,0,0-1.36.15c-.31.09-.53.39-.87.42-1-.06-1.15-1.23-2.76-1.28-.3-.35-.8-.09-1.07-.42a3.09,3.09,0,0,0-1.81-.64c-.24.1-.32-.32-.53-.35a2.84,2.84,0,0,0-.71.06c-.27.07-.45.32-.74.33s-.39-.17-.61-.27c-.22-.34-.05-.84-.28-1.2s-.5-.28-.72-.46S309.68,398.4,309.34,398.23Z"/><path class="cls-2" d="M69.23,272.53c-.71-6.09,3.66-3.59,7.5-3.49,1.06-1.36-12.82-.45-10.85-2.22,16.54-10.05,8.26-21.39,21.42-8.44,3.78,4.1-2.06-3.62-4-4.29-2.91-5.28,25.71-10.39,24.22-1.7.29,2.65,5.61-3.26,7.77-2.59-1.44-2.23.08-6.47-3.67-6.35-3.5-.28-.66-3.12-1-5.52,5.89-5.94,29.77-11.46,37.72-5.72,5.82-4.3,8.8-3.27,9.52-11.32,1.1-3.18.68-.93,2.77-1.9,2.27-2.4,5.14-3.68,6.35-6.44-2-.73,1.16-.09.65-3.44,1.59.41,2-.64,1.16-2.31,2.59-4.8,1.7-6.29,1.66-10.64.7-2.3-.08-9.75,2.77-8.1.42-5.62,4.5-12.12,11.11-13.08,4.84,2.55,7.75-3,9.57-6.86-1.79-5-11.52-3.83-11-10.7-1.11-3,5.35-.15,4.5-3.25.7-3.18,3.83-3.32,5.24-6,4,1.76,12.91-6.67,13.76-1.57-.57,3.88,1.37,6.17,3.4,9.14-2.65,2.88.7,9.95-1.85,15.15,1.72,2.38,2.85,4.61.48,7.44.51,2.54.39,1-1.29,2.67.59.64,2.05,1.85,0,1.91.14,1,1.14,1.94-.26,3.08.57,2-1.09,2.91,0,5.11-.53.92-3,.62-1.73,2.34.84.28-3.24.06-1.4,1.39.86,1.12-2.4,1.57.66,2.25-.4,1.87-3-.75-3,1.18,0,2.55-3.93,1.52-4.09,5.1-3-.56-3.26,2.91-5.91,2.45.16.52.9,1.28.35,1.74-1.74.68-1.22,2.81-1.27,4.31-.87,2.56-3.37,5.27-.33,6.82.23,2.6.38.7-1.44,2.28,1,2.19,1.65,7-1.54,7.1-11.39,9.47-5.92-2.67-10.84,7.26-1.17,4.46-6.33,6.36-2.67,11,3.1,3.67-6.59,6.17.75,8.31-3.24,11.54-12.13,3.3-1.37,19,2.85,9.87-8.36,21.08-1.56,30.52-3.84,2-3,4.42-4.69,8.76-4.59,2.85,2.07,4.33,4.56,4.32C154,336.29,94.63,279.37,69.23,272.53Z"/><path class="cls-2" d="M163.12,378.13c3.52,13.43,6,36.07-3,50.36-1.55,1.52-2.82,2.44-1.72,4.77-.36,2.83-2.45,4.46.36,5.64.89,1,1.89.13,1,2-3.49,2.88-1.49,7.74-3.1,11.62.26,1.79-1.95,3.35-3.2,3.61,2,3.88-2.11,2.58-1.17,4.52-4,2.8-.65,5.74.95,8.42.79,1.61-2,4.66-.56,4.38.14,3.8,4.08,5.95,6.78,2.95,12.15,9,7.6,9.83-6.62,6.81-9.43-4.37-1.57,13.82-9.13,9.54-4.62-2-7.41-6.9-8-11.78-3,6-3.62,21-13.53,16-4.17-.27,1.21-5.07,1-7.65-8.08,1.45-16.15-5.43-22.6.33-2.83.63-1.23-3,.47-3.31.75-1.9-.6-2.42-.87-4.7-.51-1.09,0-1,.74-1.52.33-.77-1.36-1.7.54-1.71,1.41-1.87-2.09-.86,1.06-4.37,1-1.34,1-3.07,1.61-4.6,1,.76,3.58-2.89,2.22-2.84-3.75.1,1.51-4.48-1.3-5.53-1.2.19-2,.2-1.18-1.26.88-5.7-6.14-4.39-.08-10.4,2.15-2.85-4.41-4.27-1.62-7.3-1.61-4.36-5.53-2.09-3.48-6.75-2.46.31,0-2.77-2.26-2.46,1.55-2.71,1.84-3.94.84-6.91,3.92-3.42-.21-8.21,3.55-11.35,4.37-15.47-16.2-4.06,3.89-29.75,19.64-10.5,67.31-83.9,70.36-35.2-19.39,5.37-3,6.28-6,11.31C161,364.66,164,371.08,163.12,378.13Z"/><path class="cls-2" d="M288.3,128c.21,2.76,10.39-2.57,13-2.6.89,1.2,4.75.41,6.57,1.11,1.78,1.06,3,.61,4.78.61.49,1.09,1.09,1.64.24,2.7.06,1.38,1.72,2.62,1.81,4,.1,1.93-1.61,3.17-2.77,4.39-2-.41-2,2.32-1,3.14,2.16.74-3.63,1.16-2,3.21.86.95,2.12-.57,3,.19a3,3,0,0,0-.13,2.41c.13.53.61.77,1.11.94.45.58.29,1.88,1.08,2.13,4.33,1.63.64,4.5,2.14,7.6,1,2.37,1,1.74.16,4.26-1.23.69-1.19,1.33-1.59,2.53a4.4,4.4,0,0,0-.82,1.75c-.55,3.72-2.32-.66-2.88,1.45-1.15.51-.3,1.19.07,2-.44,1.26.87,2.43,0,3.51-1.24-.09-1,1.71-2,2.17-.85.84-1.82,0-1.69,1.84-.59,1.49,2.11,2.34.43,3.9,1.1,5.06-3.73,4.08-1.94,7.53-2.72,4.13,1.39,3.11-1.37,7.86-.56.91-2.45.42-2.46,1.83-.64,1.59-2.12,1.4-.74,3-1.19,1.45-1.68,3.13-.4,4.73-.12,1.34-.69,1-1.48,1.15-.24,1.71-1.07,3.59-2.87,4.19-1.38,1.21.93,2.65,1.24,3.93,1,1.3,1.37,1.86.18,3.21,1.51.82,1.67,2.63,1.07,4.18a3,3,0,0,0-.82,2.17c0,.46-.53.57-.7,1s-.26,1.14-.6,1.6a1.11,1.11,0,0,1-1.19.07c-.1-.14-.09-.38-.34-.3s-.44.31-.7.43c-.2.4-.08,1-.21,1.39s-.58.2-.84.08-.32,0-.46-.12c-.35-.15-.6-.61-1-.58a1.37,1.37,0,0,0-.81.54c-.15.12-.25.33-.48.26-.49,0-.79-.55-1.28-.55-1.07-.12-.67,1.08-1.92.08-.71-.41-.49,1.46-1.34,2-.28.37-.41.83-.68,1.21a2.31,2.31,0,0,0-.52.88c-.12.7-.32,1.39-.38,2.1,0,.26-.31.39-.32.67s-.37.79-.24,1.2c-2.15-.38-6,.87-8.13,1.06-7.68-3.5-16.46-7.05-24.13-10.29-1.4-.72-3.41-.08-2.37-2.17-.49-2,.29-4.34.31-6.45.12-2.46,2.79,1.34,2.49-2.93a6.28,6.28,0,0,0,1.49-3.12c-.06-.57,1.08-.27,1.47-.29.22-.26.25-.27.72-.19s.43-.71.62-1.09c-.83-.22-.73-.89-.77-1.65s-.15-1.49-.18-2.18c.54.22.49-.18.57-.56a5.52,5.52,0,0,1-.86-3.31,4.69,4.69,0,0,1-.28-2.74c-.81-.28-.3-1.16-.36-1.79-.06-.89,0-2.08.93-2.47.94-1.7-.48-1.66,2.19-1.79,6.85-.55,2.87-.73,2.19-5.22,0-1.34-.4-3.33.4-4.54a1.91,1.91,0,0,0,.3-1c.3-2.67-.16-6.42.86-8.93a3.66,3.66,0,0,0-1.48-3.34c-.7-.75-1.26-1.66-2.29-2-1.29-1.31-.07-4.4,0-6.11,1.58-2.78,5.08-2.51,7.47-4.09,1.2-1.16,2.88-.92,4.35-1.29,1.75-1.83,5.34-2.18,5.06-5.38.32-1.49,1.85-.6,1.67-2.06-.2-.91.55-1.59.75-2.42a10.88,10.88,0,0,1,0-2.21c.06-.54-.45-.93-.45-1.47,0-.74,1.22-1.17.93-1.93-.13-.13-.32-.22-.34-.42s0-.25,0-.37-.23-.1-.34-.05c-3.49,2.48-.25-1.86-1.8-3.94,2.92-6.55-9.5-9.23-6.28-14.39-.37-1.08.31-2.42-.64-3.26-.09-1.18.38-2.41-.48-3.5C269.18,110.14,275.87,131.07,288.3,128Z"/><path class="cls-2" d="M328.23,100.32c2.06-7.59,7.39-15.15,15.06-17.22,5.73,1.43,3.9-5.71,7.6-5.71,3.39,4.28,8.54-2.76,12.2-2.71,1.61-1.86.76-5.69,2.62-7.54,5.43-3.14,3.48-9.72,7.54-13.83,2.74-1.75,5.3-3.15,4.52-6.67,9.4-4.38,15,24.75,22.44,7.55,5-2.49,17.57,2,18.57-4.19-.77-3-2.17-19.66,1.44-13.72,6.66,15,2.62,1.78,8,9.87,4.89,6.58,13,2.88,20,5.93,3,4.61,8.57,7.07,8.2,12.28,2.37,1.54,5.15-2.12,6.66.61,17,4.11,16.81-3.28,23.17-18.42,12,7.46,29.08,39.44,38.07,19.82,1-1.37-.76-1.63,2.69-2.19-.75-3.74,3.53-6.57,4.57-9.86,4.82-1.61,13.17-.59,16.91,3.32.61,12.3-9.31-6.36-13.39,3.16,10.41,18.8,1.71,49.1-22.17,53.9-24.13,11.78-30.49,41.79-37,67.15-11.37,13.51-22.4,29.72-36.91,38.59-6.71,7.49-6.54,4.72-14.94,2.71-7.2,5-17.19,2-25.46,1.25-11.74-11.1-27.85-13.8-42.19-21.16-22.18-8.9-14.4,17.2-29.14,22.11-6,0-29.61.63-29.21-6.6,2.84-3-5.16-6-.17-8,1.44-1.73,1-3.33,2.87-4-.81-2.07.24-5.54.13-6.75,4.24-3.58,5.08-7.38,4.51-12.63,1.78-2.57,4.31-6.47,1.88-9.23-.19-2.8,3.5-3.3,4.19-5.8-.19-1.83-1.52-3.6-.28-5,3.89,1.82,2.29-3.59,5.13-5.27-.1-3.59,1.14-10.07-2.3-11.86-.85-.26-.57-1.72-1.19-2.19-2.5-1.72.43-4-3.74-3.4-1.77-2.87,4.72-1.9,1.36-3.71,4.38-9.29,5.57-1.54,2.07-14.71,5.23.17-2.3-2.26-1.26-5.2-1.14.65-1.57-.93-1-1.76.63-4.24-2.59-1.65,3.09-3.9C307,105.54,324.2,108.84,328.23,100.32Z"/><path class="cls-1" d="M283.31,302.09c-3.11,1.78.08,3.82-2.87,5.37-2.19,1.69-7.23,1-6.91,3.37-.14,2.16-2,1.39-3,2.74-2.2,1.56-3.25,3.13-4.8,3.07-1.57,2.74-5.7,4.76-8.35,6.53-3.76.09-1.78,6.05-5.15,6.56-21.94-9.45-32.46.73-24.93-29.11-4.68-.91-9.48.33-7.2-6.54,6.49,3.33,13.66-13.07,16.74-3.28.85-.33,2.12.41,3.35.11,2.86-4.66,7.09-6.05,10.84-9.13,3.33-1.32,3.53-6.88,7.35-6.08,3.4,2.27,3.52-3.44,3.23-5.79-.95-4.36,1.43-8.72.57-13.21,3-.93,5.67,0,8.26.59a2,2,0,0,0,1.75-2.57c-3-9.53,6.8-2.76,8.26-8.15-2-9.28,4.21-3.41,4.77-13.66,1.2-5.88,12.62-5.89,11.29,1,.6,3.87,3.06,8.31-1.29,10.85-.49,4.92-6.75,7.55-3.3,11.92,2.95,1.7-3.47,2.39-.87,3.64-.9,4.68,4.9,13.59,6.51,20.18,2.26,3.28-1.42,5.12-2.82,7.79C291.72,295.75,292.14,299.91,283.31,302.09Z"/><path class="cls-1" d="M64,287.62a74,74,0,0,0,5.26-15.09c30.8,17.22,63.64,35.06,93.71,53.29-5.83,19.63-38.79,37.72-54.42,55.52-7.94,5-10.21,22.29-18.84,20.23a17.25,17.25,0,0,0-7.25,4.88c-1.84,2-2.33,4.68-4.11,6.57-1.6,3.87-7.31,2.62-4.36,7.39a3.75,3.75,0,0,0-1.58,1.78c-2.94,1.18-3.48-1.48-4.45,0-.19,2.89-1.84-1.4-3.92,3.9-3.4,3.79-1.44,8.7-6.09,11.88-2.55.37-1,1.28-1.24,3.13-1.64,2.75-4.68,9.63-8.68,7.31-1-.28-.8,1.28-1.4,1.6-.26-.18-.43-.69-.44-.05-.92.77.74,3.43-.71,3-3.09-.76-3.53-3.25-3.62-6.06-1.8-2.82,1.62-1.25,2.1-4.21,1.36-.82.09-6.37-1-5.93-.08-.23,4.62-7.47,4.28-5.63.87.05.63-1.2,1.29-1.6,2.37.86.14,3.22,3.56-.21,5.68-1.38.33-7.3,4.59-8.89,2.38.61,2.58-1.93,3.28-3.46-.22-1.47-1-3.49-.16-5.19,1.81-.22-.69-2.32.06-3,1-2.9,3.19-3.54,2-7.61,1.1-2.94-.59-5.81,1.49-6.74,0-2.91-2.59-5.06-.46-7.78,5.78,2.21,4.25-7,7.66-9.57,3.8-1.28-2.6-4.17,6.27-5.76.53-3.93,3.18-1.45,3.2-4.34-2.07-2.52,1.26-1.32-.59-6.06,2.54-1.71-1.44-4.88-3.33-4.1,1.65-2.79-2.2-8.17.51-11.55.27-4.9-4.48-1.32.25-6.46,1.74-7.31-8.34-14.89-7.67-22.39-5.79-4.52-.22-4.23,1.31-10.17C67.07,298.57,75,288.5,64,287.62Z"/><path class="cls-1" d="M309.34,398.23c1.8,2,1.87,2.68,4.51,2.71a23.2,23.2,0,0,0,9.06,2.21c17.89,7.49,22.49,25.41,16.83,42-11.13,2.38-21.76,7.41-27.68,18,1.27,6.6,7,5.6,5.38,8-1.61,2.12,2,1.08,2.57,2.15,2.48,3.77-3.95,1.29-.44,4.44,0,4.29-6.52,12.44-11,9-2.39-.65-2.25-1.38-3.53-3.46-1.05,1.51-1.2,0-2.25-.8-2,1.12,0-2.33-2.12-1.51-2.14.39-2.66-3.45-4.48-2.74-2.53-.6.06-2.1.2-3.27,1.94-4.51-2.61-3.17-1.5-5.64,2,1.64,2-1.34,1.57-2.84-.64-3.75.35-10.43-3.37-11.1-1.42-4.22,2.53-7.89-1.7-11.34-.64-3.4-5.78-8.83-1.28-10.92,2.44-1.47.73-6.39,4.51-6.42,2.86-.37,3.59,5,5.89,4.31-1.83-1.65-.87-4.49-2.82-5.75-3.62-1.53-8.41-3.89-11.31-7.36-1.88,1-2.1-2.71-3.42-2-1.07-1.6-4.05-1.46-4.82-3.86-.78-4.28,1.93-5.27-4-5.4-1.9-1.41-.61-3.95-2.14-3.16-1.37-1-1.68-1.86-2-3.62-.63.3-1.93-1.14-1.09-1.63.77-.18-.33-.66.18-1.39.36-.9-2.3-1.33-2-3,1.46-1.44-2.49-.29-1-2.11-2.86-4.22,2.62-5.13-2.24-7.18-5.46-1.35-4.76-7.32-6.14-11.8,1.88-4.56,1.29-6.2-4-6.8-2.86-6.76.59-13.31-.31-19.95-3.26-4.61-7-9.27-2-14.63,3.24-1.19,2.14-5.24,4.41-7.12,3.91-2.58,9-5.74,12.11-8.73,1.84-1.24,3.92-2.48,5.28-3.63.61-.94,0-2.48,1.11-2.5,2.32,1,6.17-3.14,7.48-1.71,1.55,4.43-.34,7.29-3.11,11.35.21,3.05-6.81,3.31-3.95,5.68-2.4,2.66-1.71,6.39-1.92,8.43-.5,2.73-.09,7.62-.31,12,1.06,4.95.11-6,7.68-5.5,5.71,3,18.43,1,18.28,9.7-6.57,6,1,7.82,2.62,14.41,1.68,3.95-1.25,1.73-2.4,3.18,1.45,6.63,3.9,7.29-3.9,9,1.26,4.32-.61,2.89,2.41,4.69,1.91,1.58,3.36,4.85,4.59,6.69.84,2.74.91,5.48,3.5,7.23C307.34,394.83,307.52,397.91,309.34,398.23Z"/><path class="cls-1" d="M247.9,327.72c9.38,3.35,1.35,2.47.78,9.73,1.39,4.92,5.54,7.58,5.35,13.15-.93,2.93-2.57,5.5-1,8.59-2.63,9.81,6.11,4.56,5.52,10.27-.71,2.94-1.13,5.63.72,8.47-.37,4.25,2.33,5.61,6.08,7.32,2.25,1-1.13,2.91-.3,4.39,1.27.77,1,1.77.81,2.92,2.37.16.66,2.15,2.4,3.43,2.53-.15-.88,2.86.93,3.18-.19.94,1,.39,1.18,1.43-.6,1.23,1.34,3.06,2,2.39.81,1.65,1.14,4.8,4.57,3.77,3.18.39-1.14,6.36,3.52,7.61,2.85.22,3.18,2.74,5.38,3.57,2.47.11,3.49,4.44,6.86,4.74,5.7,2.54,5.26,2.53,7.87,8.36-3,.09-3.22-5.56-6.79-4.29-3.11,4.28-6.26,7.76-4.52,12.33-6.82-6.57-16.75-12.49-24.1-18.57-11.73-18.77-37.42-18.12-51.82-33.86C221.58,362.6,208.7,307.58,247.9,327.72Z"/><path class="cls-1" d="M200.94,298.89c2.15-2.22-1.07-3.17-2.35-1-7.59,8.47.38-20.66-.82-21.38,3.33-21.65-4.61-64.48,30.31-49.41-1.18,4.43,4.87-.22,4.47,1.84,7.68,2.4,9.54-1.15,15.75-2.21,11.21,1.45,22.44,13,33.63,10.1,7.24-.07-3,3.73-2,6.12,2.21,4.63-1.73,7.39-6.14,5.5-4.35,1.61,1.32,10.35-4.63,8.37-1.78.11-7.7-2.39-7.06,1.87-.56,5.59.43,12.4-1.67,17.5-5.09-2.36-5.86,3.38-9.61,5.83-3.17,2.92-7.64,3.4-9.7,8-4.77,3.9-5.47-5.34-11-1.59-1.84,4-5.85,7.53-10.74,5.29C204.53,288,211.68,312.34,200.94,298.89Z"/><polygon class="cls-1" points="200.94 298.89 205.91 303.94 205.86 304.01 204.81 305.49 202.4 308.88 201.72 309.41 199.98 312.06 198.2 314.54 196.14 317.53 194.56 321.22 192.64 325.65 192.19 326.58 192.04 327.48 192.09 328.32 192.14 329.32 191.99 330.51 191.54 331.21 190.84 332.27 190.65 332.53 187.82 336.63 191.59 337.36 190.21 340.31 183.6 356.4 179.15 350.94 177.39 348.78 177.29 348.65 176.71 347.91 175.86 346.83 174.8 344.65 173.67 340.97 173.17 339.68 171.79 337.76 167.66 332.84 165.07 329.32 165.25 329.19 165.61 328.94 167.97 327.27 173.17 323.93 174.8 322.85 177.41 320.72 181.11 316.75 186.81 310.25 191.66 304.64 194.98 301.15 196.11 299.94 196.49 299.54 198.59 297.91 199.37 297.24 200.54 296.22 201.89 297.65 200.94 298.89"/><path class="cls-1" d="M170.49,494.85c4.07,3,0,4.51,2,8.33.71,1.21.71,2.64,1.36,3.84.65.73,1.91.21,2.73.53s.1,1.79,1.05,1.89a1.86,1.86,0,0,1,1.4.21c3.79,1.33,2.4,6.94-1.26,7.34-1.41,1.53-.18,4.62-1,6.44-1.09,2.13-1.25,4.6-1.5,6.87a85.94,85.94,0,0,0-4.25,8c-1.89,1.54-1.25,3.8-1.2,5.86-1.69,2.44-2.92,5.77-4.11,8.57-15.82-2.57-31.76-5.45-47.67-7l-3.43-1.12c5.06-12.67-10.54-4-7.5-12,13.69-16.34-8.64-18.76,7.1-30.88,9-9.16,4.56-3.15,13.94-4.1,4.23-.89,7-21.91,8.2-13.67A14.09,14.09,0,0,0,144.3,493c4.31,3.88,3-9.09,4.06-10.32,5.53,1.13,14.91.91,19,3.13,0,1,1.82.76,1,2.12,1.09,3.51-3.18,2.22-1.19,3.5,1.22.9-.31,1,2.08,1.67C168.1,494.82,169.42,494.37,170.49,494.85Z"/><path class="cls-1" d="M469.63,225.87c-1.61-7.27,1.23-4.14,1.54,1.08-2.5,2.16-4.06,5.82-7.74,8.52-2-.07-2.66,4.84-5.07,2.93-1.46,0-3.47.59-3.89-1.47-12.62-9.2-7.18,17.55-19,11-5.9,2.75-1.78-1.35-5.49-1.55-6.1,1.8-12.95-2.06-17.06-3.73-1.86,1.08-5.09-.3-6.92-.12-1.87,3.63-1.28-.64-3.53,1.25-.34,2-3.41,1.94-4.3,4.9-4-.42-4.43,2.68-6.68,5.22-.69.81-2.19-.43-3.46.37-1,1.2-1.59-2.11-2.13-.4,0,2.25,1,1.6-1.29,2.22-6.05,4.91-8.75-5.56-13-7.31-2.35-3.64-8.91-1.95-13.15-2.53-2.19,3.08.88,8.25-.76,12,1.59,4.65-3,10.84-4.28,14.73-2.77,2.41,2.88,5.69-.78,8.33-.21,1.45-.6,3.74-2.71,3.29-7.21-1.43-6.1,2.87-12.56,3.22-3.94,2.73-7.83,6.41-8.71-1.09.41-4.2-5.25-4.84-4.24-9.5-3.41-6-11.56-6-16.56-3.38-1.88,1.86-3.28-1.74-5.62.49-2.42-3.77-3-6.44-7.52-3.25-2,1-2.2-6.77-3.71-8.38-1.27-.78-1.47-1.3,0-2,.39-.63-1.18-.67-.78-1.34,5.08-1.32-1.3-4.17.74-7.22,2.73-1.82,3-4,3.79-7.16,1.63-1.31,3.07-2.1,3-4.45-.83-2.78-.86-5.1-1.32-8.37.25-2.09-3.32-3.13-1.27-4.85,4.91-8.24,26.56,1.77,35.63-3.44,9.63-4.8,2.74-18.59,13.78-21.5,19.18,1.2,38.62,10.35,53.53,21.87,11.67,4.4,23-2.51,33.23,1.15,5.4-.62,7.89-6.92,13.85-5.53,1.08.62-1.11,2.28-.29,2.89,3.9-1.27,7.49,3.58,2.06,4.07-3.11,1.24,7.7,5.62,9.34,7C460.89,238,466.63,229,469.63,225.87Z"/><path class="cls-1" d="M220.86,393.15c5.61,4.65,13,5.92,19.41,9a191.58,191.58,0,0,1,17.81,10c3.78,2.2,5.15,6.68,8.28,9.51,1.36,1.56,2.28.53,3.59,2.47,3.3,3.63,8,5.33,12,8,3.28,3.76,8,6.89,9.49,11.79.95,1.45,2.89,3.38,2.34,5.26-1.61,1.62-1.1,4.06-.64,6.08,3.63,1.4,3,.87,2.05,4.77.1,1.56,1.64,3.25,1.72,4.72,0,.95-1.27.7-1.29-.09-.19-.63-.92-.22-1.35-.39-.62-.37-.72-.62-.32-1.2.88-3.19-.61-1.44-1.26-2.85.32-.69,1.49-1.34.49-2.17-.82-1.31-.32-1.23-2-.89-1.48-.91-.13-3.31-1-4.7a4.11,4.11,0,0,1-1.4-2.2c-.19-.64.33-1.15.17-1.82.26-.76-.42-1.34-1.09-1.57-.23,1.15-1,1.37-1.29.07-.54-.53.2-1.39.17-2-.56-.33-.33-1.08-.67-1.59-.65-1.26-1-1.24-2.13-.69-.66-.34.09-1.28-.29-1.68-.73-.1-1.2-.64-1.87-.91-.34,0-.61.21-.91,0-1-.08-.18-.93.34-1,.2-.34.84-1.06.18-1.18-.39-.05-.46-.73-.91-.43-.56.73-1.29.1-2,0s-1.11-.61-1.67-.91c-.33-.15-.85.12-1.05-.27-.62-1-3.1-.85-4.1-.23-1.49-.45-1.28-2.06-3.52-1-2.22-.43-2.26,1.44-3.85,1.86a2.38,2.38,0,0,1-2.08-.23c-1.12.43-2.84.9-3.72-.21-.78-.56-1.49,1.41-2.57.73-2.24-.58-2-2.94-3.84-.08a7.15,7.15,0,0,0-4.1-1.05c-1.19-.79-1.87-2.29-3.49-2.31-.81-.39-1.58-1-2.44-.35a1.63,1.63,0,0,1-2,.32c-.51-.13-1.08.25-1.61.05-1.25,0-.9,1.45-1.48,2-.37.15-.54-.45-.91-.29a1.74,1.74,0,0,0-.55.79c-.14.14-.42-.07-.5.1-1.08,0-.33.72-1.59.13-.64.2.28.52-.67.56-.12.46.29,1.06.32,1.52a3.59,3.59,0,0,1-2.38,1.63c-.29.24-.46.62-.71.87-.66.22-1.68.33-2,1.05-2.57,1.62-1.29-.45-3.12.24-.51.3-.58-.63-1.15-.32-.26.16-.27-.23-.38-.34a2.14,2.14,0,0,0-1.51-.29c-.84-.13-1.24.7-2.06.69-.41.3-.55,1-1.18,1.08-1.56-.11-1.42,1.74-2.16,2.63-.25,1.15-1.31.29-1.68,1.1-.26.65-1.3.78-1,1.58-.31.39-1.14,1-.78,1.66.73,1,.56.89.22,2,.09,1-.93,1.4-1.1,2.26s.76,1.05.15,2c-.16.69-1,.77-1.46,1.16a1,1,0,0,0-.3,1c.1.3.5.58.25.89a7.66,7.66,0,0,0-1.21,1.4c-.4.84-1.56.66-2.36.87-.67.59-1.07,1.93-1.93,2.55a32.09,32.09,0,0,1-2.24,3.23c-.81,1.55,1.1,3.78-.86,5.05-.26.3-.51.67-.25,1.05a.36.36,0,0,1-.42.58c-.16-.11-.27-.4-.48-.29-.95.33-2.28-.53-2,1.14,1.27,1.71,0,1.27-1.2,1.78-2.89-1.55-1.63-4.61-.94-7.08-3.66-3.81-2.31-4.22-3.35-7.7-.47-1.93,1.41-3.41,1.34-5.37,2.39-2.12.65-2.82-1.28-4.42.17-6.08,3.86-12,5.86-17.54,2.82-9.54,5.25-21.2,7.77-30.88,1.53-4.31,3.09-16.47,7-16.66C216.37,389.08,218.69,391.07,220.86,393.15Z"/><path class="cls-1" d="M205.33,193.64c1.23.83.57,1.92,1.23,3,1.16,2.35,1.39-.51,1.08,3.58-1.34,4.07-.46,8.35.39,12.47-.84,2.67-4.44,3.41-5.06,6.71-1.48,2.13,2.76,3.15,2.3,4.35-4.46,13.79-7.36,38.2-7.53,52.67.14.85-2.61,21.55-2.67,22.91,3.18.55-7.14,8.31-8.25,10.91-5.35,5.06-18.22,23.83-24.07,15.27-2-.85,11-7.31,7.95-8.51-9.73,0-2.43-4.3-2.47-9.24-1.35-3.26,3-1.23,3.23-3.65.62-2.72-3.09-1.84-1.77-4.91.49-1.47-2.64-2.65-1-3.63,2.49-4.86,2.46-10.38,5.06-14.84-1-1.29-.14-2.73.27-4-2.42-1.44.42-2.66-2.39-4.67-1.32-2.13-1.8-4.16-2.69-6.53-3.31-.05-.08-3.26.66-4.53,2.24.87,1.11-2,3.3-2.23.8-.75.35-1.77.69-2.68.6-.6,1.92-1.87.1-1.47-1.42.5-1-.86-1.52-1.56-2-1.79,1.94-3.56,2.77-4.75-1.1-1.44-2.54-2.82-2.16-4.84.27-1.72-1.15-.37-.68-1.75,1.36-.43,1.13-1.54,1.94-2.82,1.11-1.79,2.09-.57,2.28-3.47-.06-1.11,1-.89,1.68-1.33.46-.74-.5-.78-.49-1.28.39-.57.38-2.25,1.22-2.08,3,3.87,6.95-3.25,10.66-3.43-.85-1.86,1.21-4.44-.72-6.19.45-2.12,2.5.32,1.55-1.43-.32-1.15.42-1.7-1.28-1.85-1.21-1.87,1-3.89,1.38-5.68.58-1.31-.71-.83.49-2.41-1.19-.81.27-.64.05-1.65,0-.5.51-.56.89-.63.79-.6-1-1.75-.14-2.27,1.6,1.56,2.36-.44,3.41-1.53.51-1.42,2.62.59,2.62-1.12a2.56,2.56,0,0,1,.94-1.9c2.09.13-.1-1.46,2.78-1.12.21-3.83.32-1.32,2.4-1.92,1.72-.74-.68-.71-.76-1.25C204.8,194.92,201.77,193.24,205.33,193.64Z"/><polygon class="cls-1" points="212.9 293.18 213.63 293.07 217.3 293.36 219.35 293.79 220.07 293.93 220.06 294.08 219.46 299.46 227.25 300.62 228.11 300.78 226.67 307.62 225.27 313.98 223.63 322.56 223.28 323.08 223.16 323.45 222.68 326.4 222.2 326.32 207.95 323.71 199.76 322.22 194.56 321.22 196.14 317.53 198.2 314.54 199.98 312.06 201.72 309.41 202.4 308.88 204.81 305.49 205.86 304.01 205.91 303.94 206.97 302.33 208.2 300.25 209.36 297.6 209.81 296.49 210.39 295.2 210.99 294.33 211.62 293.76 212.9 293.18"/><polygon class="cls-1" points="56.24 189.5 58.69 187.7 62.49 184.85 62.57 185.21 62.76 185.67 63.1 186.31 63.42 186.87 63.81 187.57 64.17 188.38 64.44 188.98 64.58 189.36 64.61 189.78 64.57 190 64.61 190.28 64.79 190.78 65.03 191.38 65.09 191.72 64.97 191.99 64.98 192.47 65.01 192.7 65.08 192.89 65.22 193.15 65.59 193.66 65.89 194.06 66.6 194.93 67.26 195.5 67.52 195.81 67.95 196.56 68.55 197.77 69.17 198.9 69.03 199 68.33 199.51 67.81 199.89 66.75 200.66 65.98 201.23 65.79 201.38 64.67 202.2 63.27 203.22 62.12 204.05 61.36 204.62 60.3 205.39 58.66 206.59 58.47 206.74 57.87 207.18 56.99 207.82 56.3 208.34 55 209.29 54.79 209.46 53.49 210.4 53.31 210.53 52.61 211.04 51.33 212 51.16 212.12 50.71 212.44 49.65 213.21 48.6 213.97 47.65 214.66 47.44 214.84 47.04 215.13 46.85 215.27 46.68 215.39 46.5 215.52 46.33 215.65 46.15 215.78 45.27 216.43 44.43 217.05 44.56 217.27 44.12 217.59 43.99 217.37 43.76 217.53 43 218.08 40.32 220.06 40.1 220.19 36.45 222.88 34.37 224.43 33.76 223.96 32.67 223.14 29.42 220.95 29 220.68 27.72 219.71 26.93 219.16 26.21 218.65 25.8 218.19 25.28 217.56 25.07 217.25 24.86 216.86 23.73 214.56 23.27 213.7 23.74 213.37 24.58 212.76 25.52 212.05 26.82 211.14 28.26 210.1 29.3 209.36 30.24 208.62 30.8 208.2 31.86 207.45 34.58 205.44 36.89 203.69 36.9 203.68 42.74 199.39 44.57 198.08 47.37 196.06 49.6 194.37 50.28 193.9 56.24 189.5"/><polygon class="cls-1" points="194.56 321.22 199.76 322.22 207.95 323.71 222.2 326.32 222.68 326.4 222.13 329.63 221.6 333.18 220.74 338.13 219.84 344.31 217.93 355.96 216.02 367.82 213.93 380.37 214.08 381.9 214.36 382.61 214.44 383.24 214.28 383.87 214.03 384.48 213.73 384.97 213.33 385.26 212.7 385.34 212.2 385.03 211.8 384.45 211.57 383.79 210.82 383.16 209.08 382.45 206.67 381.5 203.68 380.27 201.72 379.19 199.63 376.85 196.06 372.3 193.42 368.98 190.69 365.51 188.2 362.2 186.24 359.67 183.6 356.4 190.21 340.31 191.59 337.36 187.82 336.63 190.65 332.53 190.84 332.27 191.54 331.21 191.99 330.51 192.14 329.32 192.09 328.32 192.04 327.48 192.19 326.58 192.64 325.65 194.56 321.22"/><path class="cls-1" d="M400.56,391.06a76,76,0,0,1,4.16-24.9c.87-4.46,4.45-3.34,3.52-8.71,1.18-3.95.58-4.59-1-8.3-.73-2.45-3.76-.32-4.1-3.22-.81-.42-3.48,1-3.41-.71-3.67-3.07-2.76-2.46-6.82-.6.2,1.47-4.74,3.51-5.31,2.8-2.81.08-7.48-1.94-9.09-4.07-3.67-2.7-.09-6.8-1.33-10.1-.16-5.71,1.86-13,2.35-19.18,0-2.12.35-4.32-.54-6.81-.75-1,2.38-.18.61-1.8,1-1.94-1-2,1-3.3-.07-1,0-1.41,1.07-1.59,0-.86-1.12-1.26-.27-2.17.9-2,4.2-3.78,4.25-6,1.67-2.53,1.38-3.92,1-6.83,1.44-1.1,2.25-2.11.24-3.58-1.42-5.47,1.24-4.31-3.7-9.69.7-2.14,1.33-4.5,2.71-5.95.41-1-.79-3,1-3.17,1.72-6.76-4-10.95,1.23-8.95,5.11.87,4.13-3.71,7.73-5.49,2.48,1.38,5.73-4.91,7.7-5.65.88,0,1.07,2.11,1.56.58,2.23-2.95,5.18.6,7.81-1,3,.66,8.62,4.86,13.33,3.83,7.91-1.25,3.49,2.87,7.61,1.89,1.89-1.11,2.51.3,3.87.6,10.35.42,4.51-22.59,17.61-10.72,9.09-1.59-7.71,16.63,3.5,16.35-2.41,3-4.18,6.61,1.73,6.66-2.67,4.29.06,6.46-1.65,12,0,2.53-6.61,4.66-3.86,7.05,2.94,3.11,3.51-.25,5.51.82,1.32,3.7,1.84,6.11,4.72,8.31.22,3.12,2.43,1.72,2.91-.41,5.6-.83,16,5.16,15.66,10,1.7,3.64-9.58,3.37-2.37,8,1.37,3,2.53,6.23,6.16,5.63.44,7.39,4,7.23,8.64,9.34.51,14.6-5.84,5.11-5.91,16-3.2,1.68-.36,3.12-3.71,6.43-3.85,3.08-3.14,8.87-4.89,12.07-2.63,4.82-9.62,2.91-13,8.25C460.9,394.7,419.54,367.18,400.56,391.06Z"/><path class="cls-1" d="M238.38,123.53c13.64,4.16,40.83-2.74,36.93,19,.3,1.15,1.52-.78,2.08-.38.63,1.27-.09,1.64-.59,2.82,2.72,11.39-10.08,13.59-17.83,17.78-5.44,8,6.2,6.29,1.17,26.36,4.17,9.89-2.7,2.1-5.25,8.65A98.42,98.42,0,0,0,256.57,212a5.74,5.74,0,0,0-4.24,5c.23,2.78-2.78-.64-2.46,2.6.51,9-3.3,7-10.57,10.23-3.41-1.81-12.25.84-11.22-2.75-7.21-2.09-21.37-.77-24.7-5.83-3-3.56,5.19-5.93,4.57-9.34-1-2.14-.82-3.77-.59-6-1.45-4.6.39-3.07.44-8-1.66-.75-1.21-2.3-1.87-3.47-.27-.91-1.65-1.39-1-2.54,2.18-.43,1.72-.83,1.44-2.6,1.94-3.4-.7-1.76.81-3.86,1.59-1.5-1.44-2.54.8-2.77.32-1.4-2.31-2.64.72-2.48-.62-3.51,2.9-6.45-.88-9.12,1.39-3.71,1.69-7.24.2-10.84,2.65-1.1-.93-3.43,1.24-3.63,1.43-2.45-4.39-5.37-2.93-8.58-1.67-4.82.82-8.21,5.22-10.93-1.8-2.61,2.6-2.17,2.08-3.92-.12-.72,1-.18,1.29-.64,7.73.07.93-3.37,5.18-6.49,2-1.36,7.77,1.74,6.3-2,.8-2,2.26-2.28,3.33-3.44C230.58,121.61,237.16,121.24,238.38,123.53Z"/><path class="cls-1" d="M170.49,494.85c-3.68-.62-.07-1.57-1.75-1.9-.59-.26-1.28-.36-1-1.11-2.66-1.67.18-.68.58-1.94.35-.91,0-2,.23-2.9-.23-.51-1.17-.42-1.16-1,.4-2.19-1.54-.59-.91-3.87-.21-.73-1.44-.58-1.93-1.12a9.45,9.45,0,0,1-2.86-3.76c-.49-.75-1.22,0-1.84-.28-.6-1.42-1.49.47-2,1-1,.25-1.75-.55-2.67-.78a1.58,1.58,0,0,1-2-1.11c-.26-.73.16-2.29-.6-2.63-.23,0-.72.38-.64-.07a2.56,2.56,0,0,1,1.29-1.34c.23-1-.35-2,0-3,.16-.65-.7-1-1.06-1.39a5.46,5.46,0,0,1-.77-1.92c-1.86-.22-1.08-2.83-.25-4,2.45-2.24.05-.79.77-2,.52-.3,1.42,0,1.62-.71,1.43-1.09-.13-1.29-.24-2.51.09-1.17,1.42.09,1.51-1,.33-.89,1.78-1.16,1.89-2.08a1.91,1.91,0,0,1,.24-1.58c1.06-.56,0-1.47.24-2.25.65-.48,0-.95-.07-1.59a11.4,11.4,0,0,0,.36-2.69c.12-.79.65-1.48.82-2.28.28-.39-.45-.37-.3-.77.79-.42,1.5-.23,1.76-1.41.25-.7.79-1.49-.36-1.52-.43-.1-.65-.58-1-.82s-1-.32-1.21-.74a13.64,13.64,0,0,0,.95-3.13c-.12-.32-.29-.65,0-.93.67-.49-.19-1.3,0-2,.06-.42-.44-.71-.2-1.12.42-.78,1.59-.92,1.88-1.84.8-.65,1.78-1.17,2.17-2.23a2.6,2.6,0,0,0,.29-2.07c-.13-.25-.55-.3-.54-.62-.23-1.9,1.57-3,2.26-4.56.35-2.38,1.83-3.9,1.81-6.33.6-1.75.2-3.67.25-5.47a16.31,16.31,0,0,0,.5-5.69,17.94,17.94,0,0,0-.13-2c-.21-.67-.76-1.18-.33-1.9-.94-.93,0-2.45.34-3.47a2.8,2.8,0,0,1-.15-1.67c-.25-.82-.17-1.76-.35-2.55-1.78-.53-1.16,0-1.38-1.76-.73-1.59.41-4.84-.93-5.57l.12-.71c.2-.45,0-1.15.15-1.45.21,0,.69.32.68,0-.1-.56-.45-.87-.6-1.38-.44-.11-.52-.68-.65-1.07,0-.15-.09-.2-.23-.14s-.06-.22,0-.26a51.76,51.76,0,0,0,.25-7.82,19.78,19.78,0,0,1-.16-2.75c.13-.5.61-1.29-.23-1.38,1.77-3.11,10.11-4.91,5.31-8.23-7.8-5.1,4.29-7.06,8.37-8.71,5.91,4,11.39,14,16.76,20,3.82,4.42,7.14,11,13.24,12.52,1.33.72,3.83,1.15,4.9,2.29.17.82.83,1.8,1.76,1.47.66.56-2.83,6.17-2.89,6.95-5.67,16-7.12,34.27-14.13,49.82-1.05,2.66-4.62,9.23-1.54,11.28.4.39,1,.66,1.14,1.23.4,1.24-1.71,1.88-1.32,3.4-1.46,2.16-1.1,3.95-.79,6.29-.51,2.62,3,4,2.9,6.67-3,3.24,1.48,4.9.44,7.55-1.78,1.24-1.73,1.64-2.38,3.42-2.68,2.11-3.53,5.4-4.14,8.55-1.73,1.71-3.8,3.1-4.87,5.27-1,1.56-.56,3.3-.48,5a110.83,110.83,0,0,0-3.91,11c-.15,1.18-.33-1.15-1-1.19a3.87,3.87,0,0,0-2.82-1.1c-1.24-1.78.43-1.87-2.81-2-1.25.09-1.33-1.59-1.49-2.5A22.73,22.73,0,0,1,172,501.6C171.63,498.21,173.88,497.46,170.49,494.85Z"/><path class="cls-1" d="M469.07,220.84c.05,1.14.28,2.29.32,3.43.13.64.55,1.46,0,2-.95.54-1.24,1.69-1.91,2.49a7.76,7.76,0,0,0-3.25,3.66c-.36.6-1.09.51-1.68.47a14,14,0,0,1-2.54,1.69c-3.51,2.18-3-1.55-4.68-1.71-2.85-.12-5.17-2.35-7.22-4.2a6.28,6.28,0,0,0-1.12-.42c-.44-.13-.8-.84-1.14-1.07a.27.27,0,0,1,0-.33c.31-.37.8,0,1.18,0,2.3,0,3.26-1.12,2.46-3.33-.53-1.31-4.7-.2-4.76-1,0-.64,1.26-1.93.61-2.53-1-.34-2,1.22-3,.06-.92-.37-2.1.28-3,.36.72-2.13,5.67-3.18,8.24-4.21,2.2-1,2.83-4.09,3.89-6,4.32-5.67,10.08-10.94,14.81-16.29,11.15-11.14,9.74-12.2,13.27-26.85,1.14-4.3,2.24-10.22,5.39-13.55.58-2.21-.71-4.6.68-6.7.63-5.94,7.85-6.66,9-11.46-.06-2.37-.53-5.27,1.24-7.19,2.09-2.72,4.6-5.46,7.9-6.7,1.92-1.33,2.8-4.29,4.71-5.6,4.55-1.79,11.23-1.49,15.41-4.41,5.5-6.76,11-13.74,15-21.52,1.6-2.91-.87-6.07-.29-9.16,6.14-16.85-4.09-9.5-3.39-19.87,4.84-8.83,12.88,4.55,16,8.57.67.46,1,1.23,1.65,1.73A4.39,4.39,0,0,1,555,72.81c4.32,0,2.71,2.36,2.76,5.56,3.37,9.49,2.7,21,5,30.41.55,2.82-2,8.7,0,9.4,1.88-.78,3-3.58,5-.33.31.81-1.66,2.23-.24,2.91,1.1,1.56-2.86,1.15-1.06,3.27.76,2.11,0,4.43,1.23,6.39-.1,1.34-1,2.64.84,3.15,1.72,1.56-1.81,1.16-1.12,2.55,2.13,1.25-1.31,1.85-.77,3.25,1.74,1.19.31,2.17-1,3.07-.6,1.68-1.55.75-2.8,1.23-.06,1.5,2.83,3.59,1.65,4.26-2.92,1.86.91,3.24-4.87,1.38-.5.95.2,1.85.48,2.73a3.83,3.83,0,0,0-1.92,2c-.77.62-1.54,1.11-.57,2,5.13,7.76-2.87,5.55-1.18,8.65.23,1,2,1.76.2,2.18-.69.33-.38.8-.17,1.31a1.27,1.27,0,0,0,.62,2c.64,1,.22,2.38-.09,3.41,1.15,2,3.84,1.16,4.55,3.86,2.27,1.51,1.88,1,.24,3.4.16,1.82,2.86,2.72,1.5,4.73-.39.76.72,1,1.16,1.26-.16,1.17,1,1.32,1.56,2-1,3,.34,4.06.93,6.6-.08,1.6-1.77,3.42-3,4.26-1.09-.41-2.77,0-2,1.34-.83.83,0,1.42.54,2.05a3.1,3.1,0,0,1,0,4c-1.71,1.27-.89,3.38-.79,5-1.67.79-.77,2.91-2.25,4-1.27,2.55.69,5.65-1.92,7.42-.32,2.75,4.54,2.45,4,5.21a33,33,0,0,1-.75,4c-2.47,1.61-.16,3.06,1.64,1.8.49-.74,1.65-1.87,2.15-.46.59,1.86-.72,3.86-.9,5.62.5.6,2.11,2.07,1.93,3.08,1.54,8.84-7.1,6.71-.56,11.72.35,1.81-1.14,3-2.33,4-.44,2.24,3.56.57,3.87,3.55-4.51,4.2-10.08-6.26-15.2-6.67-2.42-.41-4.76,1.22-7.09,1.39-1.93.27-4.28-1.15-6.15-.49-2.38,1.81-5,2.75-5.09,6.16-1.49,2.57,2.34,3.5,3.36,5.35a5.85,5.85,0,0,1,4.21,3.81c1.63.22,3.31,2.73,2,4-2.41,1.14-1.81,3.65-1.76,5.8-1,1.26-3.68.85-2.77,3.14-1.8-.12-2.44.91-2.21,2.57-.88,1.23-1.42,2.64-.57,4.09-1,4.88-6.79,8.14-5.54,13.57.1,3.58-4.71,4.07-6.73,8.57-3.21,3.8,2.5,6.74-.31,7.62-.71.94-3.37.54-2.63,2.15,7.67,11.23-7.4,6,.48,16.46,0,4.07,5,6.79,3.66,10.81-4.32,5.52-11.45,6.13-16.62,10.31a29.23,29.23,0,0,1-5.15,6.43c-1.66.09-3,1.35-4.11,2.5-5.65,4.23-.42,5.71,3.06,8.29-1,5.5-4.26,10.68-7.86,15-1.58,1.8-4.24,5.13-6.29,5-2.31-1.64-5.79-2.77-6.86-5.91-1.7-1.55-4-2.77-4.72-5.2-.79-1.7-3-2-4-3.53-.23-1.92-2-2.79-3.49-3.64-6.3-6.59-2.25.31-7.77.34-2.23-.65-1.86-.28.07-1.25.67-1.47,1.82-3.2,3.51-3.58,1-3.51,2-4.13,4.38-6.32-.41-2.73.52-4.69,3.15-5.59.67-1.28,1-2.48,2.63-2.48,1.84-1.82,5.65,0,7-2.57.05-1,.43-1.6,1.41-1.65.73-2.3-.7-5.29.85-7.31,1.67-1,1.89-2.66,2.76-4.22,1.07-.52.9-1.47,1.51-2.28.45-.64,1.44-.75,1.48-1.66-2.32-2.74,1.63-1.68,1.5-3.91-1.4-2.18,1.12-4.26,2.43-5.83,1.07.21,3.31.14,2.67-1.48-.44-2.21,1.14-1.49-.34-4,.21-1.58,2.06-4.28-.6-4.86-4.07,1.81-3.09-2.53-6.16-2.34-.92-1.68.27-4.08-1-5.74-.93-.74-2.43.69-3.3-.45-1.79-2.39-2.46-6-5.34-7.31.29-4.49,7-2.45,4.85-5.84.94-.91.83-1.7-.39-2.13-.1-.87-.92-1.22-1.64-1.58-1.21-.58-1.64-2.25-3-2.63-2.65-2.76-6.1-3.41-9.67-3.87-1.9.23-2.68,5.44-3.88.64-.06-2.24-2.06-.73-2.91-2,.42-1.56-.27-2.62-1.1-3.79,0-1.18.05-2.34-1.18-2.88-.93-.37-1.49,1.06-2.44,1-1-.23-3.14-1.53-3.46-2.47,1.81-1.42.66-3.57,3.54-3.78,1.91-2.13,2.61-6.83,1.1-9.44.32-4.83,5.18-4.08-1.81-5.6-3.23-3.36,5.44-6.29.08-6-2,.47-1.72-1.83-1.89-3.21-.31-1.89.48-3.47.95-5.18.34-1.47-.28-3.36,1.18-4.36,1.14-.5,1-3.26,2-3,.24.32.38-.41.67-.17.38-.52,1-.83,1.39-1.4.55-.36.53-1.14.95-1.6s.93,0,1.24-.37c.27-.22.46-.55.75-.72.27.19.33-.25.57-.35,1.69-1.23,1.27-1.23,2.07-3,.28-.54.91-.55,1.43-.69,2.77-.3-1.26-3.12,2.47-3,.54-.21.1-.9.16-1.31.45-1.37-.76-2.5-1.05-3.77a5.69,5.69,0,0,1-.45-1.72A.33.33,0,0,0,469.07,220.84Z"/><circle class="cls-3" cx="576.03" cy="23.07" r="16.07"/><line class="cls-3" x1="576.03" y1="7.52" x2="576.03" y2="23.07"/><rect class="cls-4" x="94.24" y="433.98" width="59.6" height="18.65" rx="9.33"/><text class="cls-5" transform="translate(105.4 446.12)">z<tspan class="cls-6" x="5.27" y="0">ona 12</tspan></text><path class="cls-7" d="M140.13,408H110v16.42h30.18V408.86A6.54,6.54,0,0,0,140.13,408Z"/><path class="cls-8" d="M140.13,408a6.54,6.54,0,0,1,.06.89V408Z"/><path class="cls-9" d="M129.07,408h11.06a6.71,6.71,0,0,0-6.65-5.82H113.19V408Z"/><path class="cls-7" d="M140.13,408H110v16.42h30.18V408.86A6.54,6.54,0,0,0,140.13,408Z"/><path class="cls-10" d="M113.45,402.15h0a5.56,5.56,0,0,1,5.56,5.56v16.68a0,0,0,0,1,0,0H107.89a0,0,0,0,1,0,0V407.71A5.56,5.56,0,0,1,113.45,402.15Z"/><rect class="cls-9" x="111.07" y="413.8" width="3.71" height="10.59"/><rect class="cls-4" x="108.95" y="408.5" width="7.94" height="2.12"/><path class="cls-11" d="M134.28,386.39c0,5.65-9.88,19.41-9.88,19.41S113.81,392,113.81,386.39a10.24,10.24,0,1,1,20.47,0Z"/><circle class="cls-4" cx="124.04" cy="386.39" r="8.12"/><polygon class="cls-11" points="129.51 385.15 125.63 385.15 125.63 381.27 122.81 381.27 122.81 385.15 118.92 385.15 118.92 387.97 122.81 387.97 122.81 391.86 125.63 391.86 125.63 387.97 129.51 387.97 129.51 385.15"/><rect class="cls-4" x="94.24" y="247.33" width="59.6" height="18.65" rx="9.33"/><text class="cls-5" transform="translate(105.4 259.46)">z<tspan class="cls-6" x="5.27" y="0">ona 7</tspan></text><path class="cls-7" d="M140.13,224.36H110v16.42h30.18V225.26A6.69,6.69,0,0,0,140.13,224.36Z"/><path class="cls-8" d="M140.13,224.36a6.69,6.69,0,0,1,.06.9v-.9Z"/><path class="cls-9" d="M129.07,224.36h11.06a6.72,6.72,0,0,0-6.65-5.82H113.19v5.82Z"/><path class="cls-7" d="M140.13,224.36H110v16.42h30.18V225.26A6.69,6.69,0,0,0,140.13,224.36Z"/><path class="cls-10" d="M113.45,218.54h0A5.56,5.56,0,0,1,119,224.1v16.68a0,0,0,0,1,0,0H107.89a0,0,0,0,1,0,0V224.1a5.56,5.56,0,0,1,5.56-5.56Z"/><rect class="cls-9" x="111.07" y="230.19" width="3.71" height="10.59"/><rect class="cls-4" x="108.95" y="224.89" width="7.94" height="2.12"/><path class="cls-11" d="M134.28,202.78c0,5.65-9.88,19.41-9.88,19.41s-10.59-13.76-10.59-19.41a10.24,10.24,0,1,1,20.47,0Z"/><circle class="cls-4" cx="124.04" cy="202.78" r="8.12"/><polygon class="cls-11" points="129.51 201.54 125.63 201.54 125.63 197.66 122.81 197.66 122.81 201.54 118.92 201.54 118.92 204.37 122.81 204.37 122.81 208.25 125.63 208.25 125.63 204.37 129.51 204.37 129.51 201.54"/><rect class="cls-4" x="242" y="174.32" width="59.6" height="18.65" rx="9.33"/><text class="cls-12" transform="translate(253.15 186.46)">z<tspan class="cls-13" x="5.27" y="0">ona 6</tspan></text><path class="cls-7" d="M285.73,151.92H255.61v16.42h30.18V152.81A8.67,8.67,0,0,0,285.73,151.92Z"/><path class="cls-8" d="M285.72,151.92a6.54,6.54,0,0,1,.07.89v-.89Z"/><path class="cls-9" d="M274.67,151.92h11.05a6.7,6.7,0,0,0-6.65-5.82H258.78v5.82Z"/><path class="cls-7" d="M285.73,151.92H255.61v16.42h30.18V152.81A8.67,8.67,0,0,0,285.73,151.92Z"/><path class="cls-10" d="M259,146.1h0a5.56,5.56,0,0,1,5.56,5.56v16.68a0,0,0,0,1,0,0H253.49a0,0,0,0,1,0,0V151.66A5.56,5.56,0,0,1,259,146.1Z"/><rect class="cls-9" x="256.67" y="157.75" width="3.71" height="10.59"/><rect class="cls-4" x="254.55" y="152.45" width="7.94" height="2.12"/><path class="cls-11" d="M279.87,130.34c0,5.65-9.88,19.41-9.88,19.41S259.4,136,259.4,130.34a10.24,10.24,0,1,1,20.47,0Z"/><circle class="cls-4" cx="269.64" cy="130.34" r="8.12"/><polygon class="cls-11" points="275.11 129.1 271.23 129.1 271.23 125.22 268.4 125.22 268.4 129.1 264.52 129.1 264.52 131.92 268.4 131.92 268.4 135.81 271.23 135.81 271.23 131.92 275.11 131.92 275.11 129.1"/><rect class="cls-4" x="379.26" y="127.11" width="59.6" height="18.65" rx="9.33"/><text class="cls-14" transform="translate(390.42 139.25)"><tspan class="cls-15">z</tspan><tspan x="5.27" y="0">ona 18 </tspan></text><path class="cls-7" d="M422.65,103.68H392.53V120.1h30.19V104.57A6.67,6.67,0,0,0,422.65,103.68Z"/><path class="cls-8" d="M422.65,103.68a6.67,6.67,0,0,1,.07.89v-.89Z"/><path class="cls-9" d="M411.6,103.68h11A6.71,6.71,0,0,0,416,97.86H395.71v5.82Z"/><path class="cls-7" d="M422.65,103.68H392.53V120.1h30.19V104.57A6.67,6.67,0,0,0,422.65,103.68Z"/><path class="cls-10" d="M396,97.86h0a5.56,5.56,0,0,1,5.56,5.56V120.1a0,0,0,0,1,0,0H390.42a0,0,0,0,1,0,0V103.42A5.56,5.56,0,0,1,396,97.86Z"/><rect class="cls-9" x="393.59" y="109.51" width="3.71" height="10.59"/><rect class="cls-4" x="391.47" y="104.21" width="7.94" height="2.12"/><path class="cls-11" d="M416.8,82.1c0,5.65-9.88,19.41-9.88,19.41S396.33,87.75,396.33,82.1a10.24,10.24,0,1,1,20.47,0Z"/><circle class="cls-4" cx="406.57" cy="82.1" r="8.12"/><polygon class="cls-11" points="412.04 80.86 408.15 80.86 408.15 76.98 405.33 76.98 405.33 80.86 401.45 80.86 401.45 83.69 405.33 83.69 405.33 87.57 408.15 87.57 408.15 83.69 412.04 83.69 412.04 80.86"/></g></svg>