<svg id="Layer_1" data-name="Layer 1" xmlns="http://www.w3.org/2000/svg" viewBox="0 0 611 194">
  <defs>
    <style>
      .cls-1 {
        fill: #000f9e;
      }

      .cls-2 {
        fill: #fff;
      }

      .cls-3 {
        fill: #f5333f;
      }
    </style>
  </defs>
  <g>
    <rect class="cls-1" x="5.04" y="7.21" width="600.92" height="179.57" rx="89.79"/>
    <g>
      <path class="cls-2" d="M192.19,51.53h47.7V156.68H212.44V74H192.19Z"/>
      <path class="cls-2" d="M324.41,93.68a33.07,33.07,0,0,1,14.25,11.25,28.13,28.13,0,0,1,5,16.5,35,35,0,0,1-5.25,19.2,34.28,34.28,0,0,1-15,12.75,53.54,53.54,0,0,1-22.65,4.5,70.56,70.56,0,0,1-21.68-3.6,78.53,78.53,0,0,1-19.87-9.45l10.2-19.8q14.55,11.7,28.35,11.7,7.8,0,12.15-3.53a11.77,11.77,0,0,0,4.35-9.67q0-6.15-4.28-9.38t-12.82-3.22q-19.95,0-28.8.6v-60H339v22H293.59v16H303A52.73,52.73,0,0,1,324.41,93.68Z"/>
      <path class="cls-2" d="M426.56,104.1q7.72,7.58,7.73,19.43A31.22,31.22,0,0,1,429,141.38a34.64,34.64,0,0,1-14.85,12.15q-9.6,4.35-22.5,4.35A75.16,75.16,0,0,1,369,154.35,60.81,60.81,0,0,1,350.14,145l10.2-19.35a48.78,48.78,0,0,0,14.1,8.4,42,42,0,0,0,15,2.85q8.7,0,13.35-3.38a11.25,11.25,0,0,0,4.65-9.67c0-4.2-1.56-7.4-4.65-9.6s-7.6-3.3-13.5-3.3h-17.7v-15l24.3-23.4h-40.2v-21h73.5v15.9L400.54,93.68l5.55,1Q418.83,96.53,426.56,104.1Z"/>
      <path class="cls-2" d="M441.19,51.53H525v19l-39.6,86.1h-29.1l38.25-83.1h-29.1l-.15,14.85H441.19Z"/>
    </g>
    <circle class="cls-3" cx="98.69" cy="97" r="76.34"/>
    <path class="cls-2" d="M131,58.13c-3.63-2.91-21-9.36-49.35,18.32-29.89,29.17-23.5,48-20.12,51.23L81,108.17c-2.72-2.72-.31-6.23,5.18-13a99.35,99.35,0,0,1,14-14c3.87-3.12,7.92-5.88,10.78-3Z"/>
    <path class="cls-2" d="M68.46,134.73a3.06,3.06,0,0,0,4.34,0h0L88,119.5a3,3,0,0,0,0-4.32l-5.53-5.53L62.93,129.2l5.51,5.52Z"/>
    <path class="cls-2" d="M118,85.17a3,3,0,0,0,4.34,0h0L138,69.5a3,3,0,0,0,0-4.32l-5.52-5.52-20,20L118,85.17Z"/>
  </g>
</svg>
